<?xml version="1.0" encoding="UTF-8" standalone="no"?>
<svg
   data-name="Layer 1"
   width="619.22406"
   height="338.18954"
   viewBox="0 0 619.22405 338.18954"
   version="1.1"
   id="svg156"
   sodipodi:docname="activity.svg"
   inkscape:version="1.1.2 (0a00cf5339, 2022-02-04)"
   xmlns:inkscape="http://www.inkscape.org/namespaces/inkscape"
   xmlns:sodipodi="http://sodipodi.sourceforge.net/DTD/sodipodi-0.dtd"
   xmlns="http://www.w3.org/2000/svg"
   xmlns:svg="http://www.w3.org/2000/svg">
  <defs
     id="defs160" />
  <sodipodi:namedview
     id="namedview158"
     pagecolor="#ffffff"
     bordercolor="#666666"
     borderopacity="1.0"
     inkscape:pageshadow="2"
     inkscape:pageopacity="0.0"
     inkscape:pagecheckerboard="0"
     showgrid="false"
     fit-margin-top="0"
     fit-margin-left="0"
     fit-margin-right="0"
     fit-margin-bottom="0"
     inkscape:zoom="0.78267339"
     inkscape:cx="351.99868"
     inkscape:cy="351.35984"
     inkscape:window-width="1920"
     inkscape:window-height="996"
     inkscape:window-x="0"
     inkscape:window-y="0"
     inkscape:window-maximized="1"
     inkscape:current-layer="svg156" />
  <path
     d="m 117.2049,0 h -22.26 a 2.601,2.601 0 0 0 -2.59985,2.59985 v 22.270003 a 2.59264,2.59264 0 0 0 2.59985,2.59009 h 22.26 a 2.59918,2.59918 0 0 0 2.6001,-2.59009 V 2.59985 A 2.60761,2.60761 0 0 0 117.2049,0 Z"
     fill="#ffffff"
     id="path6" />
  <path
     d="m 117.2049,37.949953 h -22.26 a 2.60105,2.60105 0 0 0 -2.59985,2.6 v 22.27 a 2.59253,2.59253 0 0 0 2.59985,2.59 h 22.26 a 2.59907,2.59907 0 0 0 2.6001,-2.59 v -22.27 a 2.60763,2.60763 0 0 0 -2.6001,-2.6 z"
     fill="#e6e6e6"
     id="path8" />
  <path
     d="m 117.2049,75.899903 h -22.26 a 2.60116,2.60116 0 0 0 -2.59985,2.6001 V 100.76 a 2.59464,2.59464 0 0 0 2.59985,2.59985 h 22.26 A 2.60116,2.60116 0 0 0 119.805,100.76 V 78.500003 a 2.60774,2.60774 0 0 0 -2.6001,-2.6001 z"
     fill="#e6e6e6"
     id="path10" />
  <path
     d="m 119.76496,115.98999 a 2.61714,2.61714 0 0 0 -2.56006,-2.14014 h -22.26 a 2.60124,2.60124 0 0 0 -2.59985,2.6001 v 22.26 a 2.59474,2.59474 0 0 0 2.59985,2.6 h 22.26 a 2.60126,2.60126 0 0 0 2.6001,-2.6 v -22.26 a 2.31271,2.31271 0 0 0 -0.04,-0.45996 z"
     fill="#e6e6e6"
     id="path12" />
  <path
     d="m 118.21496,152 a 2.634,2.634 0 0 0 -1.01,-0.20008 h -22.26 a 2.59475,2.59475 0 0 0 -2.59985,2.6 v 22.26 a 2.58836,2.58836 0 0 0 2.59985,2.6001 h 22.26 a 2.60137,2.60137 0 0 0 2.6001,-2.6001 v -22.26 A 2.61575,2.61575 0 0 0 118.21496,152 Z"
     fill="#e6e6e6"
     id="path14" />
  <path
     d="m 163.96496,0 h -22.26 a 2.601,2.601 0 0 0 -2.59985,2.59985 v 22.270003 a 2.59264,2.59264 0 0 0 2.59985,2.59009 h 22.26 a 2.59918,2.59918 0 0 0 2.6001,-2.59009 V 2.59985 A 2.60761,2.60761 0 0 0 163.96496,0 Z"
     fill="#e6e6e6"
     id="path16" />
  <path
     d="m 163.96496,37.949953 h -22.26 a 2.60105,2.60105 0 0 0 -2.59985,2.6 v 22.27 a 2.59253,2.59253 0 0 0 2.59985,2.59 h 22.26 a 2.59907,2.59907 0 0 0 2.6001,-2.59 v -22.27 a 2.60763,2.60763 0 0 0 -2.6001,-2.6 z"
     fill="#6c63ff"
     id="path18"
     style="fill:#6aa9b3;fill-opacity:1" />
  <path
     d="m 163.96496,75.899903 h -22.26 a 2.60116,2.60116 0 0 0 -2.59985,2.6001 V 100.76 a 2.59464,2.59464 0 0 0 2.59985,2.59985 h 22.26 a 2.60116,2.60116 0 0 0 2.6001,-2.59985 V 78.500003 a 2.60774,2.60774 0 0 0 -2.6001,-2.6001 z"
     fill="#6c63ff"
     id="path20"
     style="fill:#6aa9b3;fill-opacity:1" />
  <path
     d="m 163.96496,113.84985 h -22.26 a 2.59261,2.59261 0 0 0 -2.46,1.78 2.47846,2.47846 0 0 0 -0.13989,0.82007 v 22.26 a 2.59474,2.59474 0 0 0 2.59985,2.6 h 22.26 a 2.60126,2.60126 0 0 0 2.6001,-2.6 v -22.26 a 2.60782,2.60782 0 0 0 -2.60006,-2.60007 z"
     fill="#6c63ff"
     id="path22"
     style="fill:#6aa9b3;fill-opacity:1" />
  <path
     d="m 163.96496,151.79992 h -22.26 a 2.59475,2.59475 0 0 0 -2.59985,2.6 v 22.26 a 2.59485,2.59485 0 0 0 2.59985,2.6001 h 22.26 a 2.60137,2.60137 0 0 0 2.6001,-2.6001 v -22.26 a 2.60127,2.60127 0 0 0 -2.6001,-2.6 z"
     fill="#e6e6e6"
     id="path24" />
  <path
     d="m 210.72497,0 h -22.26001 a 2.601,2.601 0 0 0 -2.59985,2.59985 v 22.270003 a 2.59264,2.59264 0 0 0 2.59985,2.59009 h 22.26001 a 2.59918,2.59918 0 0 0 2.6001,-2.59009 V 2.59985 A 2.60761,2.60761 0 0 0 210.72497,0 Z"
     fill="#6c63ff"
     id="path26"
     style="fill:#6aa9b3;fill-opacity:1" />
  <path
     d="m 210.72497,37.949953 h -22.26001 a 2.60105,2.60105 0 0 0 -2.59985,2.6 v 22.27 a 2.59253,2.59253 0 0 0 2.59985,2.59 h 22.26001 a 2.59907,2.59907 0 0 0 2.6001,-2.59 v -22.27 a 2.60763,2.60763 0 0 0 -2.6001,-2.6 z"
     fill="#6c63ff"
     id="path28"
     style="fill:#6aa9b3;fill-opacity:1" />
  <path
     d="m 210.72497,75.899903 h -22.26001 a 2.60116,2.60116 0 0 0 -2.59985,2.6001 V 100.76 a 2.59464,2.59464 0 0 0 2.59985,2.59985 h 22.26001 a 2.60116,2.60116 0 0 0 2.6001,-2.59985 V 78.500003 a 2.60774,2.60774 0 0 0 -2.6001,-2.6001 z"
     fill="#e6e6e6"
     id="path30" />
  <path
     d="m 210.72497,113.84985 h -22.26001 a 2.60124,2.60124 0 0 0 -2.59985,2.6001 v 22.26 a 2.59474,2.59474 0 0 0 2.59985,2.6 h 22.26001 a 2.60126,2.60126 0 0 0 2.6001,-2.6 v -22.26 a 2.60782,2.60782 0 0 0 -2.6001,-2.6001 z"
     fill="#6c63ff"
     id="path32"
     style="fill:#6aa9b3;fill-opacity:1" />
  <path
     d="m 210.72497,151.79992 h -22.26001 a 2.59475,2.59475 0 0 0 -2.59985,2.6 v 22.26 a 2.59485,2.59485 0 0 0 2.59985,2.6001 h 22.26001 a 2.60137,2.60137 0 0 0 2.6001,-2.6001 v -22.26 a 2.60127,2.60127 0 0 0 -2.6001,-2.6 z"
     fill="#6c63ff"
     id="path34"
     style="fill:#6aa9b3;fill-opacity:1" />
  <path
     d="m 257.48497,0 h -22.26 a 2.60113,2.60113 0 0 0 -2.6,2.59985 v 22.270003 a 2.59275,2.59275 0 0 0 2.6,2.59009 h 22.26 a 2.59918,2.59918 0 0 0 2.6001,-2.59009 V 2.59985 A 2.60761,2.60761 0 0 0 257.48497,0 Z"
     fill="#6c63ff"
     id="path36"
     style="fill:#6aa9b3;fill-opacity:1" />
  <path
     d="m 257.48497,37.949953 h -22.26 a 2.60116,2.60116 0 0 0 -2.6,2.6 v 22.27 a 2.59264,2.59264 0 0 0 2.6,2.59 h 22.26 a 2.59907,2.59907 0 0 0 2.6001,-2.59 v -22.27 a 2.60763,2.60763 0 0 0 -2.6001,-2.6 z"
     fill="#ffffff"
     id="path38" />
  <path
     d="m 257.48497,75.899903 h -22.26 a 2.60126,2.60126 0 0 0 -2.6,2.6001 V 100.76 a 2.59474,2.59474 0 0 0 2.6,2.59985 h 22.26 a 2.60116,2.60116 0 0 0 2.6001,-2.59985 V 78.500003 a 2.60774,2.60774 0 0 0 -2.6001,-2.6001 z"
     fill="#ffffff"
     id="path40" />
  <path
     d="m 257.48497,113.84985 h -22.26 a 2.60134,2.60134 0 0 0 -2.6,2.6001 v 22.26 a 2.59485,2.59485 0 0 0 2.6,2.6 h 22.26 a 2.60126,2.60126 0 0 0 2.6001,-2.6 v -22.26 a 2.60782,2.60782 0 0 0 -2.6001,-2.6001 z"
     fill="#e6e6e6"
     id="path42" />
  <path
     d="m 257.48497,151.79992 h -22.26 a 2.59485,2.59485 0 0 0 -2.6,2.6 v 22.26 a 2.595,2.595 0 0 0 2.6,2.6001 h 22.26 a 2.60137,2.60137 0 0 0 2.6001,-2.6001 v -22.26 a 2.60127,2.60127 0 0 0 -2.6001,-2.6 z"
     fill="#6c63ff"
     id="path44"
     style="fill:#6aa9b3;fill-opacity:1" />
  <path
     d="m 304.24497,0 h -22.27 a 2.599,2.599 0 0 0 -2.59,2.59985 v 22.270003 a 2.59059,2.59059 0 0 0 2.59,2.59009 h 22.27 a 2.59918,2.59918 0 0 0 2.6001,-2.59009 V 2.59985 A 2.60761,2.60761 0 0 0 304.24497,0 Z"
     fill="#ffffff"
     id="path46" />
  <path
     d="m 304.24497,37.949953 h -22.27 a 2.599,2.599 0 0 0 -2.59,2.6 v 22.27 a 2.59048,2.59048 0 0 0 2.59,2.59 h 22.27 a 2.59907,2.59907 0 0 0 2.6001,-2.59 v -22.27 a 2.60763,2.60763 0 0 0 -2.6001,-2.6 z"
     fill="#ffffff"
     id="path48" />
  <path
     d="m 304.24497,75.899903 h -22.27 a 2.59915,2.59915 0 0 0 -2.59,2.6001 V 100.76 a 2.59261,2.59261 0 0 0 2.59,2.59985 h 22.27 a 2.60116,2.60116 0 0 0 2.6001,-2.59985 V 78.500003 a 2.60774,2.60774 0 0 0 -2.6001,-2.6001 z"
     fill="#ffffff"
     id="path50" />
  <path
     d="m 304.24497,113.84985 h -22.27 a 2.59923,2.59923 0 0 0 -2.59,2.6001 v 22.26 a 2.59271,2.59271 0 0 0 2.59,2.6 h 22.27 a 2.60126,2.60126 0 0 0 2.6001,-2.6 v -22.26 a 2.60782,2.60782 0 0 0 -2.6001,-2.6001 z"
     fill="#6c63ff"
     id="path52"
     style="fill:#6aa9b3;fill-opacity:1" />
  <path
     d="m 304.24497,151.79992 h -22.27 a 2.59272,2.59272 0 0 0 -2.59,2.6 v 22.26 a 2.59282,2.59282 0 0 0 2.59,2.6001 h 22.27 a 2.60137,2.60137 0 0 0 2.6001,-2.6001 v -22.26 a 2.60127,2.60127 0 0 0 -2.6001,-2.6 z"
     fill="#e6e6e6"
     id="path54" />
  <path
     d="m 351.00497,0 h -22.27 a 2.599,2.599 0 0 0 -2.59,2.59985 v 22.270003 a 2.59059,2.59059 0 0 0 2.59,2.59009 h 22.27 a 2.59927,2.59927 0 0 0 2.6001,-2.59009 V 2.59985 A 2.60769,2.60769 0 0 0 351.00497,0 Z"
     fill="#ffffff"
     id="path56" />
  <path
     d="m 351.00497,37.949953 h -22.27 a 2.599,2.599 0 0 0 -2.59,2.6 v 22.27 a 2.59048,2.59048 0 0 0 2.59,2.59 h 22.27 a 2.59916,2.59916 0 0 0 2.6001,-2.59 v -22.27 a 2.60772,2.60772 0 0 0 -2.6001,-2.6 z"
     fill="#ffffff"
     id="path58" />
  <path
     d="m 351.00497,75.899903 h -22.27 a 2.59915,2.59915 0 0 0 -2.59,2.6001 V 100.76 a 2.59261,2.59261 0 0 0 2.59,2.59985 h 22.27 a 2.60124,2.60124 0 0 0 2.6001,-2.59985 V 78.500003 a 2.60782,2.60782 0 0 0 -2.6001,-2.6001 z"
     fill="#6c63ff"
     id="path60"
     style="fill:#6aa9b3;fill-opacity:1" />
  <path
     d="m 351.00497,113.84985 h -22.27 a 2.59923,2.59923 0 0 0 -2.59,2.6001 v 22.26 a 2.59271,2.59271 0 0 0 2.59,2.6 h 22.27 a 2.60134,2.60134 0 0 0 2.6001,-2.6 v -22.26 a 2.60791,2.60791 0 0 0 -2.6001,-2.6001 z"
     fill="#e6e6e6"
     id="path62" />
  <path
     d="m 351.00497,151.79992 h -22.27 a 2.59272,2.59272 0 0 0 -2.59,2.6 v 22.26 a 2.59282,2.59282 0 0 0 2.59,2.6001 h 22.27 a 2.60146,2.60146 0 0 0 2.6001,-2.6001 v -22.26 a 2.60135,2.60135 0 0 0 -2.6001,-2.6 z"
     fill="#ffffff"
     id="path64" />
  <path
     d="m 397.76497,0 h -22.27 a 2.599,2.599 0 0 0 -2.59,2.59985 v 22.270003 a 2.59059,2.59059 0 0 0 2.59,2.59009 h 22.27 a 2.59927,2.59927 0 0 0 2.6001,-2.59009 V 2.59985 A 2.60769,2.60769 0 0 0 397.76497,0 Z"
     fill="#6c63ff"
     id="path66"
     style="fill:#6aa9b3;fill-opacity:1" />
  <path
     d="m 397.76497,37.949953 h -22.27 a 2.599,2.599 0 0 0 -2.59,2.6 v 22.27 a 2.59048,2.59048 0 0 0 2.59,2.59 h 22.27 a 2.59916,2.59916 0 0 0 2.6001,-2.59 v -22.27 a 2.60772,2.60772 0 0 0 -2.6001,-2.6 z"
     fill="#6c63ff"
     id="path68"
     style="fill:#6aa9b3;fill-opacity:1" />
  <path
     d="m 397.76497,75.899903 h -22.27 a 2.59915,2.59915 0 0 0 -2.59,2.6001 V 100.76 a 2.59261,2.59261 0 0 0 2.59,2.59985 h 22.27 a 2.60124,2.60124 0 0 0 2.6001,-2.59985 V 78.500003 a 2.60782,2.60782 0 0 0 -2.6001,-2.6001 z"
     fill="#e6e6e6"
     id="path70" />
  <path
     d="m 397.76497,113.84985 h -22.27 a 2.59923,2.59923 0 0 0 -2.59,2.6001 v 22.26 a 2.59271,2.59271 0 0 0 2.59,2.6 h 22.27 a 2.60134,2.60134 0 0 0 2.6001,-2.6 v -22.26 a 2.60791,2.60791 0 0 0 -2.6001,-2.6001 z"
     fill="#ffffff"
     id="path72" />
  <path
     d="m 397.76497,151.79992 h -22.27 a 2.59272,2.59272 0 0 0 -2.59,2.6 v 22.26 a 2.59282,2.59282 0 0 0 2.59,2.6001 h 22.27 a 2.60146,2.60146 0 0 0 2.6001,-2.6001 v -22.26 a 2.60135,2.60135 0 0 0 -2.6001,-2.6 z"
     fill="#6c63ff"
     id="path74"
     style="fill:#6aa9b3;fill-opacity:1" />
  <path
     d="m 444.52497,0 h -22.27 a 2.599,2.599 0 0 0 -2.59,2.59985 v 22.270003 a 2.59059,2.59059 0 0 0 2.59,2.59009 h 22.27 a 2.59916,2.59916 0 0 0 2.6,-2.59009 V 2.59985 A 2.60759,2.60759 0 0 0 444.52497,0 Z"
     fill="#6c63ff"
     id="path76"
     style="fill:#6aa9b3;fill-opacity:1" />
  <path
     d="m 444.52497,37.949953 h -22.27 a 2.599,2.599 0 0 0 -2.59,2.6 v 22.27 a 2.59048,2.59048 0 0 0 2.59,2.59 h 22.27 a 2.59906,2.59906 0 0 0 2.6,-2.59 v -22.27 a 2.60761,2.60761 0 0 0 -2.6,-2.6 z"
     fill="#6c63ff"
     id="path78"
     style="fill:#6aa9b3;fill-opacity:1" />
  <path
     d="m 444.52497,75.899903 h -22.27 a 2.59915,2.59915 0 0 0 -2.59,2.6001 V 100.76 a 2.59261,2.59261 0 0 0 2.59,2.59985 h 22.27 a 2.60114,2.60114 0 0 0 2.6,-2.59985 V 78.500003 a 2.60772,2.60772 0 0 0 -2.6,-2.6001 z"
     fill="#e6e6e6"
     id="path80" />
  <path
     d="m 444.52497,113.84985 h -22.27 a 2.59923,2.59923 0 0 0 -2.59,2.6001 v 22.26 a 2.59271,2.59271 0 0 0 2.59,2.6 h 22.27 a 2.60124,2.60124 0 0 0 2.6,-2.6 v -22.26 a 2.6078,2.6078 0 0 0 -2.6,-2.6001 z"
     fill="#6c63ff"
     id="path82"
     style="fill:#6aa9b3;fill-opacity:1" />
  <path
     d="m 444.52497,151.79992 h -22.27 a 2.59272,2.59272 0 0 0 -2.59,2.6 v 22.26 a 2.59282,2.59282 0 0 0 2.59,2.6001 h 22.27 a 2.60135,2.60135 0 0 0 2.6,-2.6001 v -22.26 a 2.60125,2.60125 0 0 0 -2.6,-2.6 z"
     fill="#6c63ff"
     id="path84"
     style="fill:#6aa9b3;fill-opacity:1" />
  <path
     d="m 491.28497,0 h -22.27 a 2.599,2.599 0 0 0 -2.59,2.59985 v 22.270003 a 2.59059,2.59059 0 0 0 2.59,2.59009 h 22.27 a 2.59916,2.59916 0 0 0 2.6,-2.59009 V 2.59985 A 2.60759,2.60759 0 0 0 491.28497,0 Z"
     fill="#e6e6e6"
     id="path86" />
  <path
     d="m 491.28497,37.949953 h -22.27 a 2.599,2.599 0 0 0 -2.59,2.6 v 22.27 a 2.59048,2.59048 0 0 0 2.59,2.59 h 22.27 a 2.59906,2.59906 0 0 0 2.6,-2.59 v -22.27 a 2.60761,2.60761 0 0 0 -2.6,-2.6 z"
     fill="#6c63ff"
     id="path88"
     style="fill:#6aa9b3;fill-opacity:1" />
  <path
     d="m 491.28497,75.899903 h -22.27 a 2.59915,2.59915 0 0 0 -2.59,2.6001 V 100.76 a 2.59261,2.59261 0 0 0 2.59,2.59985 h 22.27 a 2.60114,2.60114 0 0 0 2.6,-2.59985 V 78.500003 a 2.60772,2.60772 0 0 0 -2.6,-2.6001 z"
     fill="#6c63ff"
     id="path90"
     style="fill:#6aa9b3;fill-opacity:1" />
  <path
     d="m 491.28497,113.84985 h -22.27 a 2.59923,2.59923 0 0 0 -2.59,2.6001 v 22.26 a 2.59271,2.59271 0 0 0 2.59,2.6 h 22.27 a 2.60124,2.60124 0 0 0 2.6,-2.6 v -22.26 a 2.6078,2.6078 0 0 0 -2.6,-2.6001 z"
     fill="#6c63ff"
     id="path92"
     style="fill:#6aa9b3;fill-opacity:1" />
  <path
     d="m 491.28497,151.79992 h -22.27 a 2.59272,2.59272 0 0 0 -2.59,2.6 v 22.26 a 2.59282,2.59282 0 0 0 2.59,2.6001 h 22.27 a 2.60135,2.60135 0 0 0 2.6,-2.6001 v -22.26 a 2.60125,2.60125 0 0 0 -2.6,-2.6 z"
     fill="#e6e6e6"
     id="path94" />
  <path
     d="m 538.04497,0 h -22.27 a 2.59913,2.59913 0 0 0 -2.59009,2.59985 v 22.270003 a 2.5907,2.5907 0 0 0 2.59009,2.59009 h 22.27 a 2.59916,2.59916 0 0 0 2.6,-2.59009 V 2.59985 A 2.60759,2.60759 0 0 0 538.04497,0 Z"
     fill="#e6e6e6"
     id="path96" />
  <path
     d="m 538.04497,37.949953 h -22.27 a 2.59916,2.59916 0 0 0 -2.59009,2.6 v 22.27 a 2.59059,2.59059 0 0 0 2.59009,2.59 h 22.27 a 2.59906,2.59906 0 0 0 2.6,-2.59 v -22.27 a 2.60761,2.60761 0 0 0 -2.6,-2.6 z"
     fill="#e6e6e6"
     id="path98" />
  <path
     d="m 538.04497,75.899903 h -22.27 a 2.59926,2.59926 0 0 0 -2.59009,2.6001 V 100.76 a 2.59272,2.59272 0 0 0 2.59009,2.59985 h 22.27 a 2.60114,2.60114 0 0 0 2.6,-2.59985 V 78.500003 a 2.60772,2.60772 0 0 0 -2.6,-2.6001 z"
     fill="#6c63ff"
     id="path100"
     style="fill:#6aa9b3;fill-opacity:1" />
  <path
     d="m 538.04497,113.84985 h -22.27 a 2.59934,2.59934 0 0 0 -2.59009,2.6001 v 22.26 a 2.59282,2.59282 0 0 0 2.59009,2.6 h 22.27 a 2.60124,2.60124 0 0 0 2.6,-2.6 v -22.26 a 2.6078,2.6078 0 0 0 -2.6,-2.6001 z"
     fill="#e6e6e6"
     id="path102" />
  <path
     d="m 538.04497,151.79992 h -22.27 a 2.59283,2.59283 0 0 0 -2.59009,2.6 v 22.26 a 2.59293,2.59293 0 0 0 2.59009,2.6001 h 22.27 a 2.60135,2.60135 0 0 0 2.6,-2.6001 v -22.26 a 2.60125,2.60125 0 0 0 -2.6,-2.6 z"
     fill="#e6e6e6"
     id="path104" />
  <g
     id="g1091"
     transform="translate(0,199.64453)">
    <path
       d="M 513.79204,123.03824 H 263.89922 a 5.00573,5.00573 0 0 1 -5,-5 V 70.93815 h 2 v 47.10009 a 3.00328,3.00328 0 0 0 3,3 h 249.89282 a 3.00328,3.00328 0 0 0 3,-3 V 70.60905 h 2 v 47.42919 a 5.00573,5.00573 0 0 1 -5,5 z"
       fill="#3f3d56"
       id="path32-3"
       style="fill:#ffffff;fill-opacity:1" />
    <rect
       x="17.159458"
       y="69.938156"
       width="587.21997"
       height="2"
       fill="#3f3d56"
       id="rect34"
       style="fill:#fafafc;fill-opacity:1" />
    <circle
       id="a67a4451-c7cc-402c-b29d-5a705f3c9418"
       data-name="Ellipse 264"
       cx="17.202"
       cy="70.782013"
       r="17.202"
       fill="#6aa9b3" />
    <circle
       id="abdb3fbf-f68e-433e-a33f-153626b38c76"
       data-name="Ellipse 266"
       cx="192.00699"
       cy="70.782013"
       r="17.202"
       fill="#6aa9b3" />
    <circle
       id="ac293633-0933-4e21-a8aa-bc27ca4fbccc"
       data-name="Ellipse 268"
       cx="310.63901"
       cy="121.34302"
       r="17.202"
       fill="#3f3d56"
       style="fill:#cccccc;fill-opacity:1" />
    <circle
       id="a0cd768d-b738-4d4b-9ab3-78ab535c7573"
       data-name="Ellipse 269"
       cx="400.82596"
       cy="121.34302"
       r="17.202"
       fill="#cccccc" />
    <circle
       id="b9eb3d2e-31e0-4fe2-be5c-79abb86bc227"
       data-name="Ellipse 270"
       cx="357.12296"
       cy="70.782013"
       r="17.202"
       fill="#6aa9b3" />
    <circle
       id="aa04baac-fce0-420a-b86a-4a97f3079928"
       data-name="Ellipse 271"
       cx="602.02203"
       cy="70.782013"
       r="17.202"
       fill="#6aa9b3" />
    <circle
       id="e92cf92c-058e-415c-ba96-766a57ee18d9"
       data-name="Ellipse 272"
       cx="517.79199"
       cy="70.782013"
       r="17.202"
       fill="#6aa9b3" />
    <path
       d="m 70.544728,71.93815 a 1.00005,1.00005 0 0 1 -1,-1 V 21.57584 a 5.00573,5.00573 0 0 1 5,-5 h 48.674802 a 1,1 0 0 1 0,2 H 74.544728 a 3.00328,3.00328 0 0 0 -3,3 v 49.36231 a 1.00006,1.00006 0 0 1 -1,1 z"
       fill="#3f3d56"
       id="path46-6"
       style="fill:#ffffff;fill-opacity:1" />
    <circle
       id="b0a7c1c1-8f27-441f-a84a-e44462cc473e"
       data-name="Ellipse 265"
       cx="125.50699"
       cy="17.202"
       r="17.202"
       fill="#e6e6e6" />
    <path
       d="m 455.54473,70.93815 h -2 V 21.57584 a 5.00573,5.00573 0 0 1 5,-5 h 48.6748 v 2 h -48.6748 a 3.00328,3.00328 0 0 0 -3,3 z"
       fill="#3f3d56"
       id="path49"
       style="fill:#ffffff;fill-opacity:1" />
    <circle
       id="b3140cf1-cdb8-48ff-81af-ce41ed4f5739"
       data-name="Ellipse 265"
       cx="509.50699"
       cy="17.202"
       r="17.202"
       fill="#e6e6e6" />
  </g>
</svg>
