<?xml version="1.0" encoding="UTF-8" standalone="no"?>
<svg
   data-name="Layer 1"
   width="619.224"
   height="138.54501"
   viewBox="0 0 619.22398 138.54501"
   version="1.1"
   id="svg52"
   sodipodi:docname="control-version.svg"
   inkscape:version="1.1.2 (0a00cf5339, 2022-02-04)"
   xmlns:inkscape="http://www.inkscape.org/namespaces/inkscape"
   xmlns:sodipodi="http://sodipodi.sourceforge.net/DTD/sodipodi-0.dtd"
   xmlns="http://www.w3.org/2000/svg"
   xmlns:svg="http://www.w3.org/2000/svg">
  <defs
     id="defs56" />
  <sodipodi:namedview
     id="namedview54"
     pagecolor="#ffffff"
     bordercolor="#666666"
     borderopacity="1.0"
     inkscape:pageshadow="2"
     inkscape:pageopacity="0.0"
     inkscape:pagecheckerboard="0"
     showgrid="false"
     fit-margin-top="0"
     fit-margin-left="0"
     fit-margin-right="0"
     fit-margin-bottom="0"
     inkscape:zoom="1.9321814"
     inkscape:cx="424.64956"
     inkscape:cy="175.44936"
     inkscape:window-width="1920"
     inkscape:window-height="996"
     inkscape:window-x="0"
     inkscape:window-y="0"
     inkscape:window-maximized="1"
     inkscape:current-layer="svg52" />
  <path
     d="M 513.79204,123.03824 H 263.89922 a 5.00573,5.00573 0 0 1 -5,-5 V 70.93815 h 2 v 47.10009 a 3.00328,3.00328 0 0 0 3,3 h 249.89282 a 3.00328,3.00328 0 0 0 3,-3 V 70.60905 h 2 v 47.42919 a 5.00573,5.00573 0 0 1 -5,5 z"
     fill="#3f3d56"
     id="path32"
     style="fill:#ffffff;fill-opacity:1" />
  <rect
     x="17.159458"
     y="69.938156"
     width="587.21997"
     height="2"
     fill="#3f3d56"
     id="rect34"
     style="fill:#fafafc;fill-opacity:1" />
  <circle
     id="a67a4451-c7cc-402c-b29d-5a705f3c9418"
     data-name="Ellipse 264"
     cx="17.202"
     cy="70.782013"
     r="17.202"
     fill="#6aa9b3" />
  <circle
     id="abdb3fbf-f68e-433e-a33f-153626b38c76"
     data-name="Ellipse 266"
     cx="192.00699"
     cy="70.782013"
     r="17.202"
     fill="#6aa9b3" />
  <circle
     id="ac293633-0933-4e21-a8aa-bc27ca4fbccc"
     data-name="Ellipse 268"
     cx="310.63901"
     cy="121.34302"
     r="17.202"
     fill="#3f3d56"
     style="fill:#cccccc;fill-opacity:1" />
  <circle
     id="a0cd768d-b738-4d4b-9ab3-78ab535c7573"
     data-name="Ellipse 269"
     cx="400.82596"
     cy="121.34302"
     r="17.202"
     fill="#cccccc" />
  <circle
     id="b9eb3d2e-31e0-4fe2-be5c-79abb86bc227"
     data-name="Ellipse 270"
     cx="357.12296"
     cy="70.782013"
     r="17.202"
     fill="#6aa9b3" />
  <circle
     id="aa04baac-fce0-420a-b86a-4a97f3079928"
     data-name="Ellipse 271"
     cx="602.02203"
     cy="70.782013"
     r="17.202"
     fill="#6aa9b3" />
  <circle
     id="e92cf92c-058e-415c-ba96-766a57ee18d9"
     data-name="Ellipse 272"
     cx="517.79199"
     cy="70.782013"
     r="17.202"
     fill="#6aa9b3" />
  <path
     d="m 70.544728,71.93815 a 1.00005,1.00005 0 0 1 -1,-1 V 21.57584 a 5.00573,5.00573 0 0 1 5,-5 h 48.674802 a 1,1 0 0 1 0,2 H 74.544728 a 3.00328,3.00328 0 0 0 -3,3 v 49.36231 a 1.00006,1.00006 0 0 1 -1,1 z"
     fill="#3f3d56"
     id="path46"
     style="fill:#ffffff;fill-opacity:1" />
  <circle
     id="b0a7c1c1-8f27-441f-a84a-e44462cc473e"
     data-name="Ellipse 265"
     cx="125.50699"
     cy="17.202"
     r="17.202"
     fill="#e6e6e6" />
  <path
     d="m 455.54473,70.93815 h -2 V 21.57584 a 5.00573,5.00573 0 0 1 5,-5 h 48.6748 v 2 h -48.6748 a 3.00328,3.00328 0 0 0 -3,3 z"
     fill="#3f3d56"
     id="path49"
     style="fill:#ffffff;fill-opacity:1" />
  <circle
     id="b3140cf1-cdb8-48ff-81af-ce41ed4f5739"
     data-name="Ellipse 265"
     cx="509.50699"
     cy="17.202"
     r="17.202"
     fill="#e6e6e6" />
</svg>
